<svg width="192" height="192" viewBox="0 0 192 192" fill="none" xmlns="http://www.w3.org/2000/svg">
<path d="M4.96 154V153.68H19.28V34.32H4.96V34H48.88V34.32H34.56V153.68H59.28C65.5733 153.68 70.6933 152.8 74.64 151.04C78.5867 149.227 81.6267 146.72 83.76 143.52C85.8933 140.267 87.36 136.48 88.16 132.16C88.96 127.787 89.36 123.067 89.36 118H89.68V154H4.96ZM186.298 34V34.32H171.818V153.68H186.298V154H140.698V153.68H156.698V94.96H103.898V153.68H119.898V154H74.2975V153.68H88.6175V34.32H74.2975V34H119.898V34.32H103.898V94.64H156.698V34.32H140.698V34H186.298Z" fill="#EDEDED"/>
</svg>
